<svg width="68" height="68" viewBox="0 0 68 68" fill="#313742" xmlns="http://www.w3.org/2000/svg">
<path d="M14.1667 62.3333C12.6083 62.3333 11.2743 61.7784 10.1646 60.6687C9.05486 59.559 8.5 58.225 8.5 56.6666V17C8.5 15.4416 9.05486 14.1076 10.1646 12.9979C11.2743 11.8882 12.6083 11.3333 14.1667 11.3333H17V5.66663H22.6667V11.3333H45.3333V5.66663H51V11.3333H53.8333C55.3917 11.3333 56.7257 11.8882 57.8354 12.9979C58.9451 14.1076 59.5 15.4416 59.5 17V56.6666C59.5 58.225 58.9451 59.559 57.8354 60.6687C56.7257 61.7784 55.3917 62.3333 53.8333 62.3333H14.1667ZM14.1667 56.6666H53.8333V28.3333H14.1667V56.6666ZM14.1667 22.6666H53.8333V17H14.1667V22.6666ZM34 39.6666C33.1972 39.6666 32.5243 39.3951 31.9813 38.852C31.4382 38.309 31.1667 37.6361 31.1667 36.8333C31.1667 36.0305 31.4382 35.3576 31.9813 34.8145C32.5243 34.2715 33.1972 34 34 34C34.8028 34 35.4757 34.2715 36.0187 34.8145C36.5618 35.3576 36.8333 36.0305 36.8333 36.8333C36.8333 37.6361 36.5618 38.309 36.0187 38.852C35.4757 39.3951 34.8028 39.6666 34 39.6666ZM22.6667 39.6666C21.8639 39.6666 21.191 39.3951 20.6479 38.852C20.1049 38.309 19.8333 37.6361 19.8333 36.8333C19.8333 36.0305 20.1049 35.3576 20.6479 34.8145C21.191 34.2715 21.8639 34 22.6667 34C23.4694 34 24.1424 34.2715 24.6854 34.8145C25.2285 35.3576 25.5 36.0305 25.5 36.8333C25.5 37.6361 25.2285 38.309 24.6854 38.852C24.1424 39.3951 23.4694 39.6666 22.6667 39.6666ZM45.3333 39.6666C44.5306 39.6666 43.8576 39.3951 43.3146 38.852C42.7715 38.309 42.5 37.6361 42.5 36.8333C42.5 36.0305 42.7715 35.3576 43.3146 34.8145C43.8576 34.2715 44.5306 34 45.3333 34C46.1361 34 46.809 34.2715 47.3521 34.8145C47.8951 35.3576 48.1667 36.0305 48.1667 36.8333C48.1667 37.6361 47.8951 38.309 47.3521 38.852C46.809 39.3951 46.1361 39.6666 45.3333 39.6666ZM34 51C33.1972 51 32.5243 50.7284 31.9813 50.1854C31.4382 49.6423 31.1667 48.9694 31.1667 48.1666C31.1667 47.3638 31.4382 46.6909 31.9813 46.1479C32.5243 45.6048 33.1972 45.3333 34 45.3333C34.8028 45.3333 35.4757 45.6048 36.0187 46.1479C36.5618 46.6909 36.8333 47.3638 36.8333 48.1666C36.8333 48.9694 36.5618 49.6423 36.0187 50.1854C35.4757 50.7284 34.8028 51 34 51ZM22.6667 51C21.8639 51 21.191 50.7284 20.6479 50.1854C20.1049 49.6423 19.8333 48.9694 19.8333 48.1666C19.8333 47.3638 20.1049 46.6909 20.6479 46.1479C21.191 45.6048 21.8639 45.3333 22.6667 45.3333C23.4694 45.3333 24.1424 45.6048 24.6854 46.1479C25.2285 46.6909 25.5 47.3638 25.5 48.1666C25.5 48.9694 25.2285 49.6423 24.6854 50.1854C24.1424 50.7284 23.4694 51 22.6667 51ZM45.3333 51C44.5306 51 43.8576 50.7284 43.3146 50.1854C42.7715 49.6423 42.5 48.9694 42.5 48.1666C42.5 47.3638 42.7715 46.6909 43.3146 46.1479C43.8576 45.6048 44.5306 45.3333 45.3333 45.3333C46.1361 45.3333 46.809 45.6048 47.3521 46.1479C47.8951 46.6909 48.1667 47.3638 48.1667 48.1666C48.1667 48.9694 47.8951 49.6423 47.3521 50.1854C46.809 50.7284 46.1361 51 45.3333 51Z" fill="#7D7D7D"/>
</svg>
