<svg width="73" height="73" viewBox="0 0 73 73" fill="#313742" xmlns="http://www.w3.org/2000/svg">
<path d="M12.1666 60.8334C10.4937 60.8334 9.06155 60.2377 7.87023 59.0464C6.67891 57.8551 6.08325 56.4229 6.08325 54.75V18.25C6.08325 16.5771 6.67891 15.145 7.87023 13.9537C9.06155 12.7623 10.4937 12.1667 12.1666 12.1667H60.8333C62.5062 12.1667 63.9383 12.7623 65.1296 13.9537C66.3209 15.145 66.9166 16.5771 66.9166 18.25V54.75C66.9166 56.4229 66.3209 57.8551 65.1296 59.0464C63.9383 60.2377 62.5062 60.8334 60.8333 60.8334H12.1666ZM36.4999 39.5417L12.1666 24.3334V54.75H60.8333V24.3334L36.4999 39.5417ZM36.4999 33.4584L60.8333 18.25H12.1666L36.4999 33.4584ZM12.1666 24.3334V18.25V54.75V24.3334Z" fill="#7D7D7D"/>
</svg>
